<svg xmlns="http://www.w3.org/2000/svg" width="512" height="512" viewBox="0 0 512 512">
  <defs><linearGradient id="bg" x1="0" y1="0" x2="0" y2="1"><stop offset="0" stop-color="#2A2E31"/><stop offset="1" stop-color="#0E1012"/></linearGradient></defs>
  <rect width="512" height="512" fill="url(#bg)"/>
  <g fill="#3A4045">
    <rect x="86" y="130" width="100" height="100" rx="22"/><rect x="206" y="130" width="100" height="100" rx="22"/><rect x="326" y="130" width="100" height="100" rx="22"/>
    <rect x="86" y="282" width="100" height="100" rx="22"/><rect x="326" y="282" width="100" height="100" rx="22"/>
  </g>
  <rect x="206" y="282" width="100" height="100" rx="22" fill="#30D158"/>
  <g transform="translate(256 332) scale(3.4) translate(-12 -12.5)"><path d="M12 3v10.55c-.59-.34-1.27-.55-2-.55-2.21 0-4 1.79-4 4s1.79 4 4 4 4-1.79 4-4V7h4V3h-6z" fill="#0E1012"/></g>
</svg>
